<svg width="88" height="16" viewBox="0 0 88 16" fill="none" xmlns="http://www.w3.org/2000/svg">
<path d="M7.1 15.18C6.128 15.18 5.216 15 4.364 14.64C3.524 14.268 2.786 13.758 2.15 13.11C1.526 12.45 1.034 11.682 0.674 10.806C0.326 9.93 0.152 8.982 0.152 7.962C0.152 6.954 0.326 6.018 0.674 5.154C1.034 4.278 1.526 3.516 2.15 2.868C2.786 2.208 3.524 1.692 4.364 1.32C5.204 0.948 6.116 0.762 7.1 0.762C8.024 0.762 8.816 0.882 9.476 1.122C10.148 1.362 10.82 1.758 11.492 2.31C11.588 2.382 11.66 2.46 11.708 2.544C11.768 2.616 11.804 2.694 11.816 2.778C11.84 2.85 11.852 2.94 11.852 3.048C11.852 3.276 11.768 3.468 11.6 3.624C11.444 3.768 11.252 3.852 11.024 3.876C10.796 3.888 10.574 3.81 10.358 3.642C9.914 3.258 9.452 2.964 8.972 2.76C8.504 2.556 7.88 2.454 7.1 2.454C6.392 2.454 5.726 2.598 5.102 2.886C4.478 3.174 3.926 3.57 3.446 4.074C2.978 4.578 2.612 5.166 2.348 5.838C2.084 6.498 1.952 7.206 1.952 7.962C1.952 8.73 2.084 9.45 2.348 10.122C2.612 10.782 2.978 11.364 3.446 11.868C3.926 12.372 4.478 12.768 5.102 13.056C5.726 13.332 6.392 13.47 7.1 13.47C7.712 13.47 8.288 13.368 8.828 13.164C9.38 12.948 9.908 12.654 10.412 12.282C10.628 12.126 10.838 12.06 11.042 12.084C11.258 12.096 11.438 12.18 11.582 12.336C11.726 12.48 11.798 12.684 11.798 12.948C11.798 13.068 11.774 13.188 11.726 13.308C11.678 13.416 11.606 13.518 11.51 13.614C10.862 14.13 10.166 14.52 9.422 14.784C8.69 15.048 7.916 15.18 7.1 15.18ZM15.7282 15C15.4642 15 15.2422 14.91 15.0622 14.73C14.8822 14.55 14.7922 14.328 14.7922 14.064V1.878C14.7922 1.602 14.8822 1.38 15.0622 1.212C15.2422 1.032 15.4642 0.942 15.7282 0.942C16.0042 0.942 16.2262 1.032 16.3942 1.212C16.5742 1.38 16.6642 1.602 16.6642 1.878V14.064C16.6642 14.328 16.5742 14.55 16.3942 14.73C16.2262 14.91 16.0042 15 15.7282 15ZM21.177 15C20.913 15 20.691 14.91 20.511 14.73C20.343 14.55 20.259 14.328 20.259 14.064V1.878C20.259 1.602 20.343 1.38 20.511 1.212C20.691 1.032 20.913 0.942 21.177 0.942C21.465 0.942 21.705 1.056 21.897 1.284L29.745 11.724V1.878C29.745 1.602 29.835 1.38 30.015 1.212C30.195 1.032 30.417 0.942 30.681 0.942C30.957 0.942 31.179 1.032 31.347 1.212C31.515 1.38 31.599 1.602 31.599 1.878V14.064C31.599 14.328 31.515 14.55 31.347 14.73C31.179 14.91 30.957 15 30.681 15C30.561 15 30.429 14.976 30.285 14.928C30.153 14.868 30.045 14.784 29.961 14.676L22.113 4.236V14.064C22.113 14.328 22.023 14.55 21.843 14.73C21.675 14.91 21.453 15 21.177 15ZM36.1364 15C35.8724 15 35.6504 14.91 35.4704 14.73C35.2904 14.55 35.2004 14.328 35.2004 14.064V1.878C35.2004 1.602 35.2904 1.38 35.4704 1.212C35.6504 1.032 35.8724 0.942 36.1364 0.942H44.2724C44.5484 0.942 44.7704 1.026 44.9384 1.194C45.1064 1.35 45.1904 1.56 45.1904 1.824C45.1904 2.076 45.1064 2.28 44.9384 2.436C44.7704 2.592 44.5484 2.67 44.2724 2.67H37.0724V7.044H42.2384C42.5144 7.044 42.7364 7.128 42.9044 7.296C43.0724 7.452 43.1564 7.656 43.1564 7.908C43.1564 8.16 43.0724 8.37 42.9044 8.538C42.7364 8.694 42.5144 8.772 42.2384 8.772H37.0724V13.272H44.2724C44.5484 13.272 44.7704 13.35 44.9384 13.506C45.1064 13.662 45.1904 13.866 45.1904 14.118C45.1904 14.382 45.1064 14.598 44.9384 14.766C44.7704 14.922 44.5484 15 44.2724 15H36.1364ZM48.7399 15C48.4759 15 48.2539 14.91 48.0739 14.73C47.8939 14.55 47.8039 14.328 47.8039 14.064V1.878C47.8039 1.602 47.8939 1.38 48.0739 1.212C48.2539 1.032 48.4759 0.942 48.7399 0.942C49.0999 0.942 49.3759 1.11 49.5679 1.446L55.2019 12.732H54.6259L60.1159 1.446C60.3079 1.11 60.5839 0.942 60.9439 0.942C61.2079 0.942 61.4299 1.032 61.6099 1.212C61.7899 1.38 61.8799 1.602 61.8799 1.878V14.064C61.8799 14.328 61.7839 14.55 61.5919 14.73C61.4119 14.91 61.1959 15 60.9439 15C60.6799 15 60.4579 14.91 60.2779 14.73C60.0979 14.55 60.0079 14.328 60.0079 14.064V4.47L60.3679 4.38L55.6519 13.992C55.4479 14.304 55.1779 14.46 54.8419 14.46C54.4459 14.46 54.1579 14.274 53.9779 13.902L49.3159 4.56L49.6759 4.47V14.064C49.6759 14.328 49.5859 14.55 49.4059 14.73C49.2259 14.91 49.0039 15 48.7399 15ZM64.9295 15C64.5935 15 64.3355 14.856 64.1555 14.568C63.9755 14.28 63.9575 13.974 64.1015 13.65L69.1595 1.572C69.3395 1.152 69.6335 0.942 70.0415 0.942C70.4735 0.942 70.7675 1.152 70.9235 1.572L75.9995 13.686C76.1315 14.022 76.1075 14.328 75.9275 14.604C75.7595 14.868 75.5015 15 75.1535 15C74.9735 15 74.7995 14.952 74.6315 14.856C74.4755 14.748 74.3615 14.604 74.2895 14.424L69.8255 3.336H70.3295L65.7935 14.424C65.7095 14.616 65.5835 14.76 65.4155 14.856C65.2595 14.952 65.0975 15 64.9295 15ZM65.8835 11.904L66.6035 10.356H73.6595L74.3795 11.904H65.8835ZM82.6078 15.18C81.8398 15.18 81.1078 15.06 80.4118 14.82C79.7158 14.58 79.1098 14.244 78.5938 13.812C78.0778 13.38 77.6998 12.882 77.4598 12.318C77.3398 12.066 77.3398 11.832 77.4598 11.616C77.5918 11.4 77.8078 11.262 78.1078 11.202C78.3238 11.154 78.5338 11.19 78.7378 11.31C78.9538 11.418 79.1158 11.586 79.2238 11.814C79.3678 12.114 79.6018 12.39 79.9258 12.642C80.2618 12.894 80.6638 13.098 81.1318 13.254C81.5998 13.41 82.0918 13.488 82.6078 13.488C83.1838 13.488 83.7118 13.398 84.1918 13.218C84.6838 13.038 85.0798 12.78 85.3798 12.444C85.6798 12.096 85.8298 11.67 85.8298 11.166C85.8298 10.53 85.5778 9.96 85.0738 9.456C84.5818 8.952 83.7658 8.64 82.6258 8.52C81.1378 8.376 79.9678 7.938 79.1158 7.206C78.2638 6.474 77.8378 5.568 77.8378 4.488C77.8378 3.696 78.0598 3.024 78.5038 2.472C78.9478 1.92 79.5478 1.5 80.3038 1.212C81.0718 0.924 81.9238 0.78 82.8598 0.78C83.5918 0.78 84.2278 0.881999 84.7678 1.086C85.3198 1.29 85.7998 1.572 86.2078 1.932C86.6158 2.292 86.9698 2.718 87.2698 3.21C87.4378 3.474 87.5038 3.726 87.4678 3.966C87.4438 4.194 87.3298 4.374 87.1258 4.506C86.8978 4.65 86.6518 4.68 86.3878 4.596C86.1238 4.512 85.9258 4.356 85.7938 4.128C85.6018 3.78 85.3678 3.486 85.0918 3.246C84.8158 3.006 84.4918 2.82 84.1198 2.688C83.7478 2.544 83.3098 2.472 82.8058 2.472C81.9178 2.46 81.1738 2.628 80.5738 2.976C79.9738 3.312 79.6738 3.834 79.6738 4.542C79.6738 4.902 79.7638 5.25 79.9438 5.586C80.1358 5.91 80.4778 6.192 80.9697 6.432C81.4738 6.672 82.1938 6.84 83.1298 6.936C84.5578 7.08 85.6678 7.518 86.4598 8.25C87.2638 8.97 87.6658 9.924 87.6658 11.112C87.6658 11.796 87.5218 12.39 87.2338 12.894C86.9578 13.398 86.5798 13.824 86.0998 14.172C85.6318 14.508 85.0918 14.76 84.4798 14.928C83.8798 15.096 83.2558 15.18 82.6078 15.18Z" fill="white"/>
</svg>
